<?xml version="1.0" encoding="utf-8"?>
<!-- Generator: Adobe Illustrator 19.0.0, SVG Export Plug-In . SVG Version: 6.00 Build 0)  -->
<svg version="1.1" id="Layer_1" xmlns="http://www.w3.org/2000/svg" xmlns:xlink="http://www.w3.org/1999/xlink" x="0px" y="0px"
	 viewBox="115 312 841.9 169" style="enable-background:new 115 312 841.9 169;" xml:space="preserve">
<style type="text/css">
	.st0{clip-path:url(#SVGID_2_);}
	.st1{fill:#FCD9B1;}
</style>
<g>
	<defs>
		<rect id="SVGID_1_" x="115" y="312" width="841.9" height="169"/>
	</defs>
	<clipPath id="SVGID_2_">
		<use xlink:href="#SVGID_1_"  style="overflow:visible;"/>
	</clipPath>
	<g class="st0">
		
			<image style="overflow:visible;" width="1600" height="1200" xlink:href="bg-gray.png"  transform="matrix(0.5208 0 0 0.5208 115 312)">
		</image>
		<polygon class="st1" points="956.9,457.6 950.5,448.8 940.2,448.8 932.3,457.6 930.9,452.4 928.5,448.8 924.1,448.8 919,457.6 
			913.5,448.8 908.7,448.8 900.5,457.6 900.5,461.7 892.6,464 887.4,464 879.2,456.4 839.8,448.8 835,441 835,436 830.6,436 
			828.9,427.5 824.7,427.5 812.8,444.1 791.9,455.6 659.3,450.5 616.5,427.5 603.1,433.6 584.3,436 573.6,424.5 571.6,402.5 
			567.1,402.5 567.1,406.2 564.4,406.2 564.4,392.3 561.6,392.3 552.7,406.5 552.7,415.3 548.3,411.6 548.3,407.6 545.5,407.6 
			545.5,411.3 537.3,419.1 521.9,419.4 500.7,420.1 496.2,416.4 483.2,416 478.1,409.9 473.9,409.9 471.9,412.6 460.6,413.3 
			421.9,416.7 414.1,414 405.1,414.3 399.9,418.7 388.6,419.1 385.2,412 373.9,420.4 298.9,429.9 277.6,420.4 249.2,415 
			223.2,365.6 214.9,360.9 198.2,335.9 189.3,335.9 179.7,319.6 172.5,319.6 154.7,339.3 149.5,337.9 137.2,365.6 133.1,365.6 
			122.5,401.5 115,409.6 115,617 956.9,617 		"/>
	</g>
</g>
</svg>
